<?xml version="1.0" standalone="no"?>
<!DOCTYPE svg PUBLIC "-//W3C//DTD SVG 20010904//EN"
 "http://www.w3.org/TR/2001/REC-SVG-20010904/DTD/svg10.dtd">
<svg version="1.0" xmlns="http://www.w3.org/2000/svg"
 width="962.000000pt" height="962.000000pt" viewBox="0 0 962.000000 962.000000"
 preserveAspectRatio="xMidYMid meet">
<metadata>
Created by potrace 1.11, written by Peter Selinger 2001-2013
</metadata>
<g transform="translate(0.000000,962.000000) scale(0.100000,-0.100000)"
fill="#000000" stroke="none">
<path d="M4559 9616 c-2 -2 -44 -6 -94 -10 -205 -14 -308 -27 -525 -66 -314
-56 -682 -166 -991 -296 -1188 -499 -2130 -1457 -2603 -2649 -27 -66 -52 -129
-57 -140 -52 -116 -190 -632 -214 -801 -3 -21 -10 -61 -15 -89 -5 -27 -12 -72
-15 -100 -6 -56 -13 -113 -20 -165 -13 -100 -20 -261 -20 -495 0 -336 12 -486
61 -785 9 -52 18 -108 21 -125 2 -16 26 -120 53 -230 134 -544 348 -1033 658
-1505 63 -96 118 -177 121 -180 3 -3 26 -32 50 -65 243 -329 604 -688 956
-952 177 -133 469 -323 495 -323 4 0 10 -3 12 -7 4 -10 31 -24 218 -118 260
-131 612 -270 808 -321 9 -2 51 -13 92 -25 41 -11 82 -22 90 -24 35 -10 162
-37 250 -55 124 -25 137 -27 206 -36 33 -4 61 -9 64 -9 3 -1 37 -5 75 -9 39
-4 81 -10 95 -12 167 -29 772 -25 1020 7 41 5 95 12 120 15 25 3 118 19 208
35 867 157 1684 557 2342 1148 243 219 487 487 672 741 384 526 678 1175 813
1795 29 132 36 170 59 315 8 52 18 124 22 160 4 36 8 74 10 85 25 202 25 810
0 965 -2 14 -7 56 -11 94 -4 38 -9 81 -11 95 -14 79 -24 140 -28 171 -9 59
-25 136 -51 245 -9 39 -18 80 -21 92 -28 142 -181 586 -269 778 -48 105 -146
303 -180 360 -19 33 -38 67 -42 75 -3 8 -35 62 -71 119 -418 681 -975 1228
-1662 1636 -121 72 -400 214 -510 260 -36 15 -83 35 -105 45 -46 21 -355 133
-400 145 -42 11 -42 11 -120 34 -252 75 -609 140 -917 167 -64 5 -634 14 -639
10z m611 -691 c19 -2 60 -7 90 -10 93 -10 296 -40 330 -50 8 -2 31 -7 50 -10
115 -20 387 -95 557 -155 287 -101 603 -258 863 -428 108 -71 270 -186 322
-230 13 -11 55 -46 93 -78 130 -108 317 -291 422 -411 32 -37 66 -77 76 -88
124 -138 336 -450 469 -690 184 -329 353 -805 424 -1190 9 -49 18 -99 20 -110
9 -43 35 -265 42 -350 9 -118 9 -514 0 -635 -26 -335 -100 -691 -208 -1000
-27 -80 -52 -152 -54 -160 -21 -74 -184 -418 -267 -564 -379 -660 -924 -1199
-1585 -1566 -445 -248 -976 -423 -1474 -485 -30 -4 -66 -9 -80 -11 -197 -26
-696 -26 -900 1 -19 2 -57 7 -85 11 -341 41 -806 169 -1093 300 -29 13 -55 24
-58 24 -7 0 -293 144 -331 166 -17 11 -60 36 -95 56 -89 51 -228 144 -328 217
-90 67 -212 162 -220 171 -3 4 -45 42 -95 86 -539 476 -949 1108 -1176 1812
-17 52 -32 101 -35 110 -2 9 -20 78 -39 152 -32 123 -61 267 -71 345 -2 17 -6
39 -9 51 -2 11 -7 45 -11 75 -3 30 -7 65 -10 79 -25 156 -25 761 0 897 2 10 7
49 11 88 4 38 8 72 10 75 1 3 6 28 9 55 4 28 11 69 17 93 5 23 12 59 15 79 3
20 10 47 15 60 5 13 7 23 5 23 -2 0 5 33 15 73 11 39 22 83 25 97 3 14 28 95
56 180 203 624 536 1172 993 1634 108 109 226 216 320 291 28 22 52 42 55 45
3 3 23 18 45 35 22 16 45 35 52 41 26 25 334 224 430 277 384 215 820 378
1208 453 22 4 47 9 55 11 8 2 26 5 40 7 34 6 90 15 120 21 14 2 52 7 85 11 33
3 69 8 80 10 11 2 70 7 130 10 61 4 112 8 114 10 5 5 520 -5 561 -11z"/>
<path d="M5527 7994 c-1 -1 -36 -4 -77 -7 -439 -35 -847 -316 -1043 -719 -152
-314 -171 -690 -50 -1013 45 -122 125 -266 194 -351 28 -34 186 -192 215 -215
218 -170 488 -267 764 -274 161 -4 297 15 435 60 471 153 824 579 883 1065 13
110 8 271 -14 415 -12 77 -75 250 -128 351 -121 229 -305 413 -536 537 -81 44
-261 110 -325 120 -16 3 -59 10 -95 16 -54 9 -217 20 -223 15z m185 -454 c18
-5 44 -11 58 -14 122 -22 308 -129 409 -235 159 -169 236 -367 234 -601 -3
-323 -187 -610 -480 -753 -40 -20 -73 -33 -73 -31 0 3 -9 0 -20 -6 -45 -24
-186 -46 -285 -44 -237 4 -437 91 -602 262 -309 320 -312 838 -6 1164 162 172
379 265 620 266 62 0 127 -4 145 -8z"/>
<path d="M6925 5435 c-369 -82 -617 -397 -609 -771 7 -370 283 -682 653 -739
51 -8 194 -8 231 0 14 3 38 8 54 10 56 11 182 65 244 106 176 115 293 289 338
504 12 61 11 221 -3 290 -26 129 -102 277 -190 370 -43 45 -137 125 -148 125
-4 0 -19 8 -33 18 -30 20 -145 70 -177 76 -11 3 -39 9 -62 14 -61 14 -229 12
-298 -3z m285 -452 c168 -75 243 -276 163 -438 -36 -75 -84 -121 -163 -157
-59 -28 -72 -30 -145 -26 -98 6 -150 30 -220 102 -117 122 -119 309 -5 440 34
38 87 71 150 93 51 17 166 10 220 -14z"/>
</g>
</svg>
